<?xml version="1.0" encoding="UTF-8"?>
<svg version="1.1" xmlns="http://www.w3.org/2000/svg" width="893" height="449">
<path d="M0 0 C0.84046875 0.64582031 1.6809375 1.29164062 2.546875 1.95703125 C6.69677069 5.41307495 9.72758073 9.73010534 13 14 C13.79535156 15.02609375 14.59070313 16.0521875 15.41015625 17.109375 C19.10892679 21.94484087 22.38703528 26.48454539 25 32 C25.67289062 33.31097656 25.67289062 33.31097656 26.359375 34.6484375 C37.73033633 56.94318753 50.36263857 84.58008727 43 110 C42.67 110.66 42.34 111.32 42 112 C42 112.99 42 113.98 42 115 C42 118 42 118 41 120 C40.34 120 39.68 120 39 120 C39.0928125 121.5159375 39.0928125 121.5159375 39.1875 123.0625 C39.0193397 126.5938662 38.50261133 128.75141118 36.9921875 131.89453125 C35.20379166 135.68959171 33.73548692 139.62678363 32.18359375 143.5234375 C31 146 31 146 29 147 C28.19164668 149.55830501 27.59220088 152.13909988 26.9765625 154.75 C26.65429688 155.4925 26.33203125 156.235 26 157 C23.8984375 157.8125 23.8984375 157.8125 22 158 C22 158.66 22 159.32 22 160 C21.13375 160.680625 20.2675 161.36125 19.375 162.0625 C16.70750715 164.18408733 15.04008756 166.29267269 13.25 169.1875 C8.36411633 176.87633799 1.7540042 183.24186106 -6 188 C-9.16424072 190.40360593 -11.77206471 192.65809707 -14 196 C-14.845625 196.33 -15.69125 196.66 -16.5625 197 C-17.366875 197.33 -18.17125 197.66 -19 198 C-19.33 198.99 -19.66 199.98 -20 201 C-21.11375 201.4021875 -21.11375 201.4021875 -22.25 201.8125 C-25.31547841 203.13622931 -26.43687709 204.73132189 -28.45703125 207.3046875 C-37.08173152 216.78094046 -52.21684747 224.24539459 -64 229 C-62.68 231.64 -61.36 234.28 -60 237 C-59.195625 235.824375 -58.39125 234.64875 -57.5625 233.4375 C-51.28551504 225.20896983 -43.83257556 220.0858599 -33.49902344 218.27978516 C-23.75283725 217.18862363 -13.78475399 217.74989815 -4 218 C10.27648033 218 21.99678684 210.60272815 33.47021484 202.93334961 C35.98192081 201.25581262 38.1157783 199.96140723 41 199 C43.35321065 195.20198723 44.54101568 190.75887282 46 186.55859375 C47 184 47 184 49 181 C51.1015625 180.375 51.1015625 180.375 53.625 180 C56.97871394 179.43391212 59.40576566 178.8220326 62.5625 177.4375 C66.71576027 175.73229965 70.88638512 175.71582073 75.3125 175.5625 C86.13103874 175.12386317 93.6448286 172.54929423 102.01953125 165.5234375 C104.50739524 163.60969597 107.03509878 162.98830041 110 162 C115.7370657 158.19677667 120.62951698 153.56345496 125.37109375 148.6015625 C127 147 127 147 129 146 C129.73050585 144.30655463 130.45776843 142.61154979 131.16015625 140.90625 C133.60793346 135.35036498 136.62959021 131.8496052 142 129 C144.875 128.75 144.875 128.75 147 129 C147 129.66 147 130.32 147 131 C148.010625 131.144375 149.02125 131.28875 150.0625 131.4375 C152.61562479 131.80223211 155.16019876 132.23597263 157.6875 132.75 C160.88520988 133.23095018 160.88520988 133.23095018 163.25 132.125 C166.37593594 128.32922065 167.9598072 123.77330325 168.03125 118.84375 C167.70743293 115.83687722 167.01717847 113.0515354 166.0625 110.1875 C165.09795218 107.29385655 164.59610161 104.68920938 164.125 101.6875 C163.35731837 97.22043915 162.1340032 93.50065412 160.09765625 89.4609375 C158.4377247 85.73938278 157.25093942 81.87500303 156 78 C155.23558722 75.65172781 154.46972007 73.30395337 153.70117188 70.95703125 C153.18474601 69.38001723 152.67181797 67.80185416 152.16210938 66.22265625 C151.78602539 65.07990234 151.78602539 65.07990234 151.40234375 63.9140625 C151.06964478 62.8923999 151.06964478 62.8923999 150.73022461 61.85009766 C149.9632629 59.71686189 149.9632629 59.71686189 148 57 C147.48046875 55.0625 147.48046875 55.0625 147.1875 53 C147.02314453 51.9790625 147.02314453 51.9790625 146.85546875 50.9375 C147 49 147 49 148.2109375 47.23828125 C150.53857363 45.62723179 151.66599616 45.79023554 154.4375 46.1875 C155.58025391 46.33251953 155.58025391 46.33251953 156.74609375 46.48046875 C159.21654408 47.04991397 160.8688129 47.61162573 163 49 C164.20092773 51.35986328 164.20092773 51.35986328 165.18359375 54.3203125 C165.55137939 55.40513916 165.91916504 56.48996582 166.2980957 57.60766602 C166.67409912 58.76838623 167.05010254 59.92910645 167.4375 61.125 C167.83219482 62.30827881 168.22688965 63.49155762 168.63354492 64.71069336 C169.77070758 68.13574961 170.8872311 71.56695615 172 75 C172.51754882 76.56142359 173.03566693 78.12265876 173.5546875 79.68359375 C175.99486265 87.14236244 177.97724596 94.6504219 179.56958008 102.33227539 C180.4595657 106.44108365 181.73446414 109.4818266 184 113 C184.54849053 114.48295588 185.05154406 115.98379181 185.5 117.5 C187.05898958 122.61902067 187.05898958 122.61902067 190 127 C194.92288093 129.00685011 200.25630045 129.11207134 205.5 129.4375 C209.48153661 129.68634604 212.78917482 130.10272686 216.5 131.5625 C226.53250286 135.31090766 239.02303791 133.19208972 248.875 129.625 C252 129 252 129 254.8125 130.6875 C259 135.11428571 259 135.11428571 259 137.9375 C257.41040718 141.21603519 255.16147442 142.27555941 252 144 C246.50852937 145.51730326 240.98297718 146.63654359 235.375 147.625 C234.65054688 147.7590625 233.92609375 147.893125 233.1796875 148.03125 C227.6051679 149.0209292 222.5248152 149.55583876 217 148 C208.36579028 146.31448047 201.50957661 145.86475568 193 148 C187.78764479 148.57915058 187.78764479 148.57915058 184.875 146.4375 C182.56038041 143.42849453 180.80006416 140.34297629 179 137 C175.36024921 138.45907221 173.83539054 140.26022238 171.6875 143.5 C171.08679688 144.38945312 170.48609375 145.27890625 169.8671875 146.1953125 C169.25101563 147.12085938 168.63484375 148.04640625 168 149 C166.77711147 150.79595763 165.54815783 152.58780391 164.3125 154.375 C163.77238281 155.16648438 163.23226562 155.95796875 162.67578125 156.7734375 C158.59170913 162.19982703 155.23412744 164.30642218 148.49609375 165.41015625 C141.45309633 166.30206422 141.45309633 166.30206422 138 164 C136.68 164 135.36 164 134 164 C132.5995256 165.65262866 132.5995256 165.65262866 131.5625 167.8125 C128.99169977 172.21625749 126.86910131 174.23765351 121.82421875 175.578125 C119.55629354 176.09778053 117.28270994 176.55080842 115 177 C113.66467019 177.32524328 112.33062848 177.65602801 111 178 C110.6596875 179.5778125 110.6596875 179.5778125 110.3125 181.1875 C109.42937243 185.28200056 107.3063021 187.50200062 104 190 C100.84730085 190.53057891 97.80493972 190.33666781 94.625 190.125 C88.046165 189.7446611 83.96498939 190.17139324 78 193 C75.59375 193.1875 75.59375 193.1875 73.5 193 C68.99653191 192.86190387 65.95158105 193.67554056 62 196 C61.38125 196.928125 60.7625 197.85625 60.125 198.8125 C57.25315266 203.12027101 53.51665889 205.54112393 49 208 C48.34 208 47.68 208 47 208 C46.78988281 208.57621094 46.57976562 209.15242187 46.36328125 209.74609375 C44.5025301 212.82246456 42.20395091 214.13212019 39.1875 216.0625 C38.14980469 216.73410156 37.11210937 217.40570313 36.04296875 218.09765625 C34.13161391 219.29255973 32.20975062 220.47097957 30.2734375 221.625 C27.89507327 223.01002378 27.89507327 223.01002378 25.4375 224.9375 C20.81149329 228.07357208 15.28540864 229.36207388 10 231 C9.12601562 231.36480469 8.25203125 231.72960937 7.3515625 232.10546875 C2.36682119 233.43589504 -2.49079812 233.24862145 -7.625 233.1875 C-8.66140625 233.18685547 -9.6978125 233.18621094 -10.765625 233.18554688 C-15.04845284 233.16064671 -18.84851883 233.06623968 -23 232 C-26.12833248 232.62919469 -29.03700189 233.82846862 -32 235 C-33.06541016 235.4021875 -33.06541016 235.4021875 -34.15234375 235.8125 C-43.33189862 239.75918002 -46.95364698 248.38060971 -51 257 C-41.24739846 254.5783824 -31.84058208 251.69021828 -22.43554688 248.16333008 C-20.47514212 247.4281783 -18.5113984 246.70258143 -16.546875 245.97851562 C-11.78725182 244.21535394 -7.04513347 242.44805526 -2.37866211 240.44750977 C0.32438362 239.28945224 2.99973987 238.23803656 5.77734375 237.28125 C6.62103516 236.98863281 7.46472656 236.69601562 8.33398438 236.39453125 C9.19314453 236.09933594 10.05230469 235.80414063 10.9375 235.5 C18.12260913 233.02264986 18.12260913 233.02264986 25.2578125 230.40625 C28.46735056 229.20016054 31.68140793 228.07196447 34.9375 227 C35.96617187 226.6596875 36.99484375 226.319375 38.0546875 225.96875 C39.8304833 225.38466862 41.60646727 224.80115827 43.3828125 224.21875 C48.51139426 222.52760476 53.56937681 220.68942506 58.6171875 218.76953125 C61 218 61 218 64 218 C64 217.34 64 216.68 64 216 C77.36321375 210.90480817 90.80186925 206.00317589 104.39453125 201.55078125 C105.07056396 201.32914307 105.74659668 201.10750488 106.44311523 200.87915039 C108.23898981 200.29429398 110.0373683 199.71714154 111.8359375 199.140625 C115.0323662 198.06254227 115.0323662 198.06254227 118.0234375 196.4609375 C121.09638058 194.9526951 123.91972881 194.13644391 127.25 193.375 C131.23825658 192.50006639 131.23825658 192.50006639 135 191 C136.54023996 190.93049459 138.08334988 190.91547643 139.625 190.9375 C140.44226563 190.94652344 141.25953125 190.95554688 142.1015625 190.96484375 C143.04128906 190.98224609 143.04128906 190.98224609 144 191 C144 192.32 144 193.64 144 195 C137.21482592 198.65294837 130.47541272 200.76404476 123.0703125 202.79882812 C122.21695312 203.04181641 121.36359375 203.28480469 120.484375 203.53515625 C119.71834961 203.745354 118.95232422 203.95555176 118.16308594 204.17211914 C115.73590795 205.10107631 114.04796306 206.41884619 112 208 C109.37109375 208.73828125 109.37109375 208.73828125 106.4375 209.3125 C100.93345928 210.58676882 96.64322986 212.6358011 91.77734375 215.44921875 C83.27901731 220.19441649 74.42798027 222.82431225 65 225 C63.70521386 225.36408325 62.41288717 225.73721859 61.125 226.125 C58.0917056 226.97432243 55.11448635 227.54422151 52 228 C52 228.66 52 229.32 52 230 C49.31531083 230.98750659 46.62766735 231.96512355 43.9375 232.9375 C43.18533203 233.21529297 42.43316406 233.49308594 41.65820312 233.77929688 C38.09726385 235.05876856 34.96689588 236.00437993 31.19140625 236.50390625 C27.76997988 237.03575588 26.60850154 237.85438496 24 240 C21.72265625 240.8515625 21.72265625 240.8515625 19.0625 241.625 C12.08451764 243.83941507 5.44388193 246.72384393 -1.26147461 249.65087891 C-17.05881347 256.54518364 -17.05881347 256.54518364 -23.4375 258.25 C-28.4797254 259.6940176 -33.19507956 261.73515218 -38 263.8125 C-45.13509603 266.89285915 -52.30247112 269.53644019 -59.69873047 271.91455078 C-65.07704011 273.65469766 -70.27277472 275.67154575 -75.46484375 277.9140625 C-78.30398434 279.13021209 -81.17773483 280.19815174 -84.08203125 281.24609375 C-86.2415002 282.09492778 -88.28914857 283.109376 -90.375 284.125 C-96.5124677 286.87627862 -102.23472815 287.26760695 -108.875 286.625 C-112.90799018 284.5278451 -113.81637391 282.36112218 -115.56640625 278.2890625 C-116 276 -116 276 -115.48046875 273.94921875 C-113.33985956 271.13084411 -110.84856944 269.86766037 -107.75 268.1875 C-106.07164062 267.24970703 -106.07164062 267.24970703 -104.359375 266.29296875 C-100.61411784 264.85148024 -98.81334359 264.92543064 -95 266 C-94.34 266.33 -93.68 266.66 -93 267 C-83.50570335 266.24648439 -74.20000345 264.43018959 -65 262 C-66.56407545 259.03648862 -67.7948806 257.15383955 -70.5 255.125 C-73.6385086 252.45726769 -74.5236896 249.79622674 -76 246 C-76.66 245.34 -77.32 244.68 -78 244 C-78.71927295 241.68234271 -79.3909893 239.34904126 -80 237 C-80.72670898 237.29511475 -81.45341797 237.59022949 -82.20214844 237.89428711 C-86.5032069 239.59406842 -90.87230855 241.07359372 -95.25 242.5625 C-96.60544922 243.03719727 -96.60544922 243.03719727 -97.98828125 243.52148438 C-103.01878648 245.22606564 -107.64335478 246.3126261 -112.93115234 246.75512695 C-116.17844612 247.1394833 -119.11254905 248.22939296 -122.1875 249.3125 C-138.09435621 254.54123941 -154.41502898 256.40630446 -171.07739258 257.31713867 C-172.71164185 257.41152222 -172.71164185 257.41152222 -174.37890625 257.5078125 C-175.3438501 257.55566895 -176.30879395 257.60352539 -177.30297852 257.65283203 C-180.15804346 258.02034379 -182.37093818 258.85500984 -185 260 C-191.83959648 261.57125865 -198.64619986 262.04069019 -205.640625 262.1015625 C-206.82833496 262.11823975 -208.01604492 262.13491699 -209.23974609 262.15209961 C-211.62798947 262.17535651 -214.01673333 262.16925817 -216.40478516 262.13110352 C-223.55633567 262.20864797 -227.52708543 263.15721033 -232.71142578 268.2043457 C-234.2915118 270.03786796 -234.2915118 270.03786796 -234 273 C-233.01 273.66 -232.02 274.32 -231 275 C-231.15234375 277.83984375 -231.15234375 277.83984375 -232 281 C-234.44140625 282.50390625 -234.44140625 282.50390625 -237.5625 283.5625 C-246.57545149 286.65308234 -246.57545149 286.65308234 -253.234375 293.0390625 C-254.20465771 295.52417433 -253.72584749 296.45953377 -253 299 C-252.63733959 302.98926447 -252.69682064 305.36727786 -254.4375 309 C-257.35424921 311.27648718 -258.01722182 311.2771553 -261.5625 311 C-265.15619789 310.5151841 -266.55108113 309.60365825 -269 307 C-272.10007201 305.79950593 -272.10007201 305.79950593 -275 305 C-276.0842148 306.54104688 -277.16732521 308.08287078 -278.25 309.625 C-278.89710938 310.53894531 -279.54421875 311.45289063 -280.2109375 312.39453125 C-282.09961941 315.06455263 -282.09961941 315.06455263 -283.875 318.3125 C-287.83283401 323.31799596 -292.38487456 325.58869441 -298.67578125 326.578125 C-300.63064453 326.78695312 -300.63064453 326.78695312 -302.625 327 C-308.98669803 327.68274994 -312.45623866 328.45623866 -317 333 C-317.309375 333.78375 -317.61875 334.5675 -317.9375 335.375 C-319.69860562 339.72596683 -323.41134028 342.10169605 -327 345 C-328.27423828 346.04994141 -328.27423828 346.04994141 -329.57421875 347.12109375 C-341.01068294 356.43779477 -341.01068294 356.43779477 -346.6875 356.3125 C-347.45449219 356.30863281 -348.22148437 356.30476563 -349.01171875 356.30078125 C-351 356 -351 356 -353 354 C-353.44921875 351.61328125 -353.44921875 351.61328125 -353 349 C-350.76953125 347.04296875 -350.76953125 347.04296875 -347.8125 345.1875 C-341.72966033 341.0251445 -337.84593627 337.22968137 -336.375 329.875 C-337.07979568 326.63293988 -338.40413873 325.35141908 -340.609375 322.96875 C-343.65113791 318.66243397 -345.32426755 313.19144453 -346 308 C-344.87392146 305.62017703 -343.85655061 303.85655061 -342 302 C-336.75006944 301.58824074 -333.37733498 302.01968682 -329 305 C-323 311.71395881 -323 311.71395881 -323 315 C-322.154375 314.54625 -321.30875 314.0925 -320.4375 313.625 C-314.86357557 310.9900539 -309.99611551 309.96505058 -303.875 309.6875 C-299.75659176 309.39442975 -298.34490455 309.25339926 -294.9375 306.75 C-294.298125 305.8425 -293.65875 304.935 -293 304 C-292.1028125 302.9171875 -292.1028125 302.9171875 -291.1875 301.8125 C-289.90871682 298.783803 -289.99266714 297.34461304 -290.1875 294.125 C-290.37128362 289.48956867 -290.37128362 289.48956867 -288.67578125 287.25390625 C-288.12277344 286.73699219 -287.56976563 286.22007812 -287 285.6875 C-284.54344223 283.29378441 -284.02886432 282.35205728 -283.7421875 278.85546875 C-283.8284114 276.59589533 -283.97110905 274.33751509 -284.1796875 272.0859375 C-283.95176159 268.17155767 -282.73388644 266.73388644 -280 264 C-277.04805269 262.86463565 -275.54374559 262.85046996 -272.5 263.6875 C-265.68446626 267.26565521 -265.68446626 267.26565521 -264.01953125 271.484375 C-263.26956941 273.97720592 -262.59480763 276.46602276 -262 279 C-260.02 278.67 -258.04 278.34 -256 278 C-256.52268466 275.23723823 -257.10869587 272.6739124 -258 270 C-258.51816484 263.0047746 -256.81978899 260.22924151 -252.5 254.9375 C-247.61080112 250.18342973 -240.70335391 248 -234 248 C-237.31607933 244.26941075 -240.25240899 242.25953104 -244.75 240.1640625 C-262.92983227 230.75852428 -274.30817122 214.45654706 -281.73828125 195.87109375 C-282.82006326 192.93802257 -282.82006326 192.93802257 -285 191 C-285.57836914 189.11157227 -285.57836914 189.11157227 -286.03515625 186.81640625 C-286.20466797 185.97013672 -286.37417969 185.12386719 -286.54882812 184.25195312 C-286.71833984 183.36443359 -286.88785156 182.47691406 -287.0625 181.5625 C-287.23587891 180.70978516 -287.40925781 179.85707031 -287.58789062 178.97851562 C-292.70222071 152.89739169 -291.74598436 123.56651425 -281 99 C-280.74347656 98.40461426 -280.48695313 97.80922852 -280.22265625 97.19580078 C-273.53017515 81.78948515 -264.98329633 62.67102342 -251.625 52.125 C-249.45465205 50.36805166 -248.03084416 48.88945949 -246.3125 46.75 C-233.18743115 31.09960145 -211.24616617 18.49679628 -192.125 12.375 C-187.72305032 11.26752131 -187.72305032 11.26752131 -184 9 C-161.90931174 5.37205795 -140.19230742 6.70965802 -121 19 C-120.34 19.66 -119.68 20.32 -119 21 C-117.27278417 21.71695751 -115.54509222 22.43285316 -113.8125 23.13671875 C-111.22787626 24.36775721 -109.19428185 26.18188075 -107 28 C-106.34 28 -105.68 28 -105 28 C-104.82984375 27.46745605 -104.6596875 26.93491211 -104.484375 26.38623047 C-99.45705541 10.85301629 -93.6917779 -4.08865819 -82 -16 C-81.34 -16 -80.68 -16 -80 -16 C-79.76667969 -16.60457031 -79.53335937 -17.20914063 -79.29296875 -17.83203125 C-76.8660474 -21.90134046 -72.25527787 -23.281151 -68 -25 C-45.83301653 -30.54174587 -15.98844576 -13.65210598 0 0 Z M-76.6875 1.484375 C-78.42745814 3.49361237 -79.69090432 5.69349808 -81 8 C-81.50273437 8.44601563 -82.00546875 8.89203125 -82.5234375 9.3515625 C-84.40377254 11.45077252 -84.55041101 12.91698669 -84.9375 15.6875 C-85.68261941 20.00167875 -86.98024384 23.23769009 -89.046875 27.0625 C-91.4958624 32.04076948 -92.50436523 37.48039739 -92 43 C-90.47220838 45.39113646 -90.47220838 45.39113646 -88.3125 47.4375 C-85.66206306 50.20521292 -83.26784523 52.88362449 -81.125 56.0625 C-80.42375 57.031875 -79.7225 58.00125 -79 59 C-78.34 59 -77.68 59 -77 59 C-76.7525 59.53625 -76.505 60.0725 -76.25 60.625 C-74.9758872 63.15437822 -74.9758872 63.15437822 -73 65.9375 C-71 69 -71 69 -70.12109375 71.26953125 C-68.74374537 74.62411842 -66.91708507 77.64603699 -65.0625 80.75 C-62.39106559 85.31283142 -60.06658015 89.71861252 -58.66796875 94.83984375 C-57.9900156 97.20832296 -57.9900156 97.20832296 -56.53515625 100.125 C-54.57667973 104.62763764 -53.91088526 109.22288777 -53.25 114.0625 C-53.12294678 114.98844971 -52.99589355 115.91439941 -52.86499023 116.8684082 C-51.40288221 128.50363547 -51.99894826 138.25699997 -57 149 C-57.37253906 149.96679688 -57.74507813 150.93359375 -58.12890625 151.9296875 C-61.2183152 159.94379784 -65.39117848 166.45189616 -70.7109375 173.15625 C-72.19099871 174.89823802 -72.19099871 174.89823802 -72 177 C-72.99 177 -73.98 177 -75 177 C-78.11544333 179.8857074 -78.94914124 181.50921294 -79.390625 185.76953125 C-79.36431837 187.11774585 -79.31701804 188.46569518 -79.25 189.8125 C-79.22292969 190.85180664 -79.22292969 190.85180664 -79.1953125 191.91210938 C-79.14851064 193.60867664 -79.07677624 195.30452476 -79 197 C-78.01 197.33 -77.02 197.66 -76 198 C-76.1546875 199.546875 -76.1546875 199.546875 -76.3125 201.125 C-75.91955796 205.99748131 -74.16339681 207.38468936 -71 211 C-70.06027521 213.33278414 -69.54313141 215.53122086 -69 218 C-67.28243548 218.80553368 -67.28243548 218.80553368 -65 219 C-62.2228486 217.79284246 -62.2228486 217.79284246 -59.375 215.9375 C-57.78171875 214.96296875 -57.78171875 214.96296875 -56.15625 213.96875 C-55.1146875 213.3190625 -54.073125 212.669375 -53 212 C-51.29350215 210.97610129 -49.58530646 209.9550241 -47.875 208.9375 C-47.0809375 208.45667969 -46.286875 207.97585938 -45.46875 207.48046875 C-43.70792661 206.42453194 -41.9357322 205.38746125 -40.15625 204.36328125 C-39.2384375 203.83089844 -38.320625 203.29851562 -37.375 202.75 C-36.53710938 202.27046875 -35.69921875 201.7909375 -34.8359375 201.296875 C-34.23007812 200.86890625 -33.62421875 200.4409375 -33 200 C-33 199.34 -33 198.68 -33 198 C-32.4225 197.73316406 -31.845 197.46632812 -31.25 197.19140625 C-28.9290637 195.96243825 -27.04819933 194.57838696 -25 192.9375 C-21.36132986 190.05413865 -17.6702157 187.26060516 -13.9375 184.5 C-6.19389028 178.68002463 0.24728622 173.06399432 6.140625 165.33203125 C8 163 8 163 10.14453125 160.859375 C12.13170827 159.0351932 12.13170827 159.0351932 13.4375 156.4375 C15 154 15 154 17.375 152.7265625 C24.14965049 148.27061679 27.3038436 137.8208704 30.078125 130.4140625 C30.81981406 128.47184284 31.66058354 126.56761223 32.53125 124.6796875 C36.49892423 114.73939727 36.27595907 103.79333241 35.2890625 93.3046875 C35 90 35 90 35.04296875 86.74609375 C34.98706475 83.17331984 33.66721619 81.14918613 32 78 C31.49654124 76.57082674 31.01903182 75.13234796 30.5625 73.6875 C29.31263722 69.80191621 27.79473227 66.14321996 26.08984375 62.4375 C24.87351151 59.71710102 23.78734158 56.95693716 22.6875 54.1875 C20.01508512 47.7590386 16.68414409 41.89769429 13 36 C12.36964844 34.98679688 11.73929687 33.97359375 11.08984375 32.9296875 C6.63893993 26.0099921 1.70277391 19.92211137 -4 14 C-5.07507813 12.88238281 -5.07507813 12.88238281 -6.171875 11.7421875 C-15.86959212 1.86218246 -27.91091219 -6.53238669 -42 -8 C-42.99 -8.66 -43.98 -9.32 -45 -10 C-57.60251108 -12.97763157 -67.98232499 -7.49283673 -76.6875 1.484375 Z M-186 21 C-186.97066406 21.2784375 -187.94132812 21.556875 -188.94140625 21.84375 C-196.52088085 24.08952025 -202.54138303 27.49509095 -209 32 C-210.30130859 32.87205078 -210.30130859 32.87205078 -211.62890625 33.76171875 C-216.48224106 37.05902255 -220.97363438 40.5646727 -225.30859375 44.51953125 C-227 46 -227 46 -230 48 C-230 48.66 -230 49.32 -230 50 C-230.66 50 -231.32 50 -232 50 C-233.43700222 51.342554 -233.43700222 51.342554 -234.9375 53.1875 C-235.55496094 53.91839844 -236.17242187 54.64929688 -236.80859375 55.40234375 C-237.53175781 56.25957031 -238.25492188 57.11679688 -239 58 C-239.88493362 59.0028801 -240.77175394 60.0040976 -241.66015625 61.00390625 C-247.06339614 67.14612278 -251.63774377 73.21004289 -255.5625 80.44140625 C-256.88858334 82.80169046 -258.37003324 84.84644057 -260 87 C-261.06404273 89.32154778 -262.04513434 91.63396121 -263 94 C-263.83178898 96.00064278 -264.66524718 98.00059204 -265.5 100 C-265.92925781 101.03898437 -266.35851562 102.07796875 -266.80078125 103.1484375 C-267.71705469 105.32719846 -268.68999523 107.48221197 -269.6875 109.625 C-271.3943135 114.01394901 -272.18773743 118.3748024 -273 123 C-273.18691406 123.96035156 -273.37382812 124.92070312 -273.56640625 125.91015625 C-274.42126543 130.35183718 -275.11405796 134.46212276 -275 139 C-275.99 139.495 -275.99 139.495 -277 140 C-276.82032363 155.86108686 -276.63942285 170.72157935 -272 186 C-271.6367822 187.97390087 -271.30090638 189.9531444 -271 191.9375 C-270.14936444 197.04131336 -268.33735955 201.40470573 -266 206 C-265.34 206 -264.68 206 -264 206 C-263.773125 206.680625 -263.54625 207.36125 -263.3125 208.0625 C-259.50111771 216.59273656 -253.26775154 221.40372553 -246 227 C-245.41347656 227.48597656 -244.82695312 227.97195313 -244.22265625 228.47265625 C-237.51370055 233.78177896 -228.37092312 237.53253634 -220 239 C-218.091305 239.46805578 -216.1826892 239.93644975 -214.27514648 240.40917969 C-205.55256856 242.55243603 -196.92840741 244.01228681 -188 245 C-188 245.33 -188 245.66 -188 246 C-176.29768216 245.31162836 -165.97798227 239.77157798 -156 234 C-154.89398438 233.39542969 -153.78796875 232.79085937 -152.6484375 232.16796875 C-151.54757812 231.55566406 -150.44671875 230.94335938 -149.3125 230.3125 C-148.29800781 229.75175781 -147.28351563 229.19101562 -146.23828125 228.61328125 C-145.49964844 228.08089844 -144.76101563 227.54851562 -144 227 C-144 226.01 -144 225.02 -144 224 C-143.13503906 223.76023437 -142.27007812 223.52046875 -141.37890625 223.2734375 C-137.64736405 221.86709905 -135.08082083 220.06665051 -131.9375 217.625 C-130.93589844 216.85414063 -129.93429687 216.08328125 -128.90234375 215.2890625 C-127.08387956 213.85484983 -125.26941651 212.41553321 -123.4609375 210.96875 C-121.7600708 209.60805664 -120.04694374 208.2625988 -118.32421875 206.9296875 C-117.45410156 206.25164062 -116.58398438 205.57359375 -115.6875 204.875 C-114.80449219 204.19179688 -113.92148437 203.50859375 -113.01171875 202.8046875 C-112.34785156 202.20914063 -111.68398438 201.61359375 -111 201 C-111 200.34 -111 199.68 -111 199 C-109.35 198.67 -107.7 198.34 -106 198 C-106 197.34 -106 196.68 -106 196 C-105.43925781 195.75765625 -104.87851562 195.5153125 -104.30078125 195.265625 C-101.52899779 193.7409088 -99.48065052 191.92830776 -97.1875 189.75 C-96.37667969 189.00234375 -95.56585938 188.2546875 -94.73046875 187.484375 C-92.69605339 185.09731031 -92.69605339 185.09731031 -93.12109375 182.02734375 C-93.93408197 179.22705099 -94.81498371 176.52827818 -95.875 173.8125 C-98.71682751 166.22399683 -100.6857212 158.50575215 -102.41992188 150.60205078 C-103.05915803 147.73463539 -103.73127745 144.87575275 -104.40234375 142.015625 C-110.71260673 114.56037419 -114.54917666 86.56753921 -110.0078125 58.51171875 C-109.84297363 57.46870605 -109.67813477 56.42569336 -109.50830078 55.35107422 C-109.1791456 53.38341551 -108.81255907 51.42150529 -108.40185547 49.46923828 C-107.50190375 44.51285894 -107.50190375 44.51285894 -109.25610352 39.96655273 C-111.05908915 38.08297548 -112.89752506 36.53993729 -115 35 C-115.85634033 34.36421021 -115.85634033 34.36421021 -116.72998047 33.71557617 C-118.42774782 32.54101858 -120.15450986 31.47771853 -121.9375 30.4375 C-122.57647217 30.06036865 -123.21544434 29.6832373 -123.8737793 29.29467773 C-142.54813699 18.64014992 -165.26341182 13.58722888 -186 21 Z M-96 55 C-96.5304408 57.26860837 -97.04905434 59.53998489 -97.5625 61.8125 C-97.85253906 63.07707031 -98.14257812 64.34164062 -98.44140625 65.64453125 C-99.26583023 68.98204409 -99.26583023 68.98204409 -98 72 C-98.66 72 -99.32 72 -100 72 C-100.06058594 72.84304687 -100.12117187 73.68609375 -100.18359375 74.5546875 C-100.26738281 75.65039062 -100.35117187 76.74609375 -100.4375 77.875 C-100.51871094 78.96554688 -100.59992188 80.05609375 -100.68359375 81.1796875 C-101 84 -101 84 -102 86 C-100.68 86 -99.36 86 -98 86 C-98.165 87.175625 -98.33 88.35125 -98.5 89.5625 C-99.57585911 99.44793013 -100.25862682 110.44538431 -97 120 C-96.34 120.66 -95.68 121.32 -95 122 C-94.37551671 124.549496 -93.84109651 127.04720094 -93.375 129.625 C-93.2409375 130.33140625 -93.106875 131.0378125 -92.96875 131.765625 C-92.63889975 133.50911918 -92.31853944 135.25440389 -92 137 C-92.99 137.495 -92.99 137.495 -94 138 C-93.3819713 139.79408332 -92.75533919 141.58520478 -92.125 143.375 C-91.77695312 144.37273437 -91.42890625 145.37046875 -91.0703125 146.3984375 C-90.15217498 149.10442118 -90.15217498 149.10442118 -88 151 C-87.33140536 154.37603555 -86.79037798 157.73850963 -86.3203125 161.14648438 C-85.77047818 164.55483237 -85.44328173 166.57731687 -82.8984375 169.00390625 C-82.27195312 169.33261719 -81.64546875 169.66132813 -81 170 C-80.484375 169.071875 -79.96875 168.14375 -79.4375 167.1875 C-77.59982671 163.93723798 -75.57174102 160.85538385 -73.5 157.75 C-66.52142953 146.86283104 -64.82067428 136.45283354 -64.8125 123.75 C-64.79413086 122.27080078 -64.79413086 122.27080078 -64.77539062 120.76171875 C-64.75897089 112.45333492 -65.58406048 104.53417689 -69 96.875 C-70.2579352 93.91677877 -71.27457903 91.14413945 -71.9375 88 C-73.07725257 83.02375888 -75.19872331 78.26425799 -78 74 C-78.99 73.67 -79.98 73.34 -81 73 C-82.70996421 70.94804294 -84.30527727 68.90424411 -85.875 66.75 C-89.00302981 62.49320102 -92.1716611 58.64995752 -96 55 Z M-95.4375 198.125 C-98.02823729 200.86715108 -98.02823729 200.86715108 -99.75 203.8125 C-102.90425831 208.28103261 -106.82534772 211.49971463 -111 215 C-112.25683594 216.06927734 -112.25683594 216.06927734 -113.5390625 217.16015625 C-118.67424926 221.4546266 -123.95169151 225.51698452 -129.375 229.4375 C-129.95789795 229.86272949 -130.5407959 230.28795898 -131.14135742 230.72607422 C-134.32617748 232.99550514 -137.34131512 234.64747083 -141 236 C-143.02318078 237.29788956 -145.02866014 238.62464661 -147 240 C-146.67 241.32 -146.34 242.64 -146 244 C-131.49603358 244.50013677 -119.65322712 241.06867542 -106.25 235.96484375 C-101.08104791 233.99867671 -95.88746554 232.36896938 -90.55859375 230.88671875 C-87.76738652 229.91938433 -85.47624014 228.59858541 -83 227 C-83.19916016 225.93072266 -83.19916016 225.93072266 -83.40234375 224.83984375 C-84.95102041 216.44081633 -84.95102041 216.44081633 -85.375 212.625 C-86.35756436 206.92612673 -88.22332706 201.49529072 -90 196 C-93.16206919 195.6714324 -93.16206919 195.6714324 -95.4375 198.125 Z " fill="#000000" transform="translate(435,54)"/>
<path d="M0 0 C4.56798857 0.4808409 6.66269859 2.00496052 9.5625 5.375 C20.23125324 19.29560704 26.81663103 34.10152549 29.5625 51.375 C29.68351074 52.12040039 29.80452148 52.86580078 29.92919922 53.63378906 C32.54491637 70.53139523 31.66088195 86.06017777 26.5625 102.375 C26.35230225 103.14481201 26.14210449 103.91462402 25.92553711 104.70776367 C24.22869052 110.79790462 21.89763697 116.14493709 18.875 121.6875 C18.43583252 122.50492676 17.99666504 123.32235352 17.54418945 124.16455078 C7.57808373 142.54547699 7.57808373 142.54547699 0.5625 149.375 C-0.71371103 150.89503997 -1.96428163 152.43699875 -3.1875 154 C-4.21423828 155.29550781 -4.21423828 155.29550781 -5.26171875 156.6171875 C-6.74449013 158.49660688 -8.22621876 160.3768493 -9.70703125 162.2578125 C-19.62752115 174.66264995 -19.62752115 174.66264995 -25.87109375 177.46875 C-28.69977541 178.84558101 -30.42923381 179.93765491 -32.4375 182.375 C-34.5900556 192.20342695 -32.09554608 203.01244374 -30.6875 212.8125 C-30.45317261 214.44590332 -30.45317261 214.44590332 -30.21411133 216.11230469 C-28.94832445 224.02997397 -27.05255904 231.45241145 -22.5625 238.1875 C-21.4375 240.375 -21.4375 240.375 -22.25 243.1875 C-22.641875 243.909375 -23.03375 244.63125 -23.4375 245.375 C-27.21036787 244.86515299 -28.95078078 244.24165209 -31.4375 241.375 C-45.60664893 215.68432546 -46.62101823 187.75379597 -46.56787109 159.02368164 C-46.56248503 155.55285326 -46.567857 152.08215271 -46.57421875 148.61132812 C-46.57355833 146.38020805 -46.57227792 144.14908806 -46.5703125 141.91796875 C-46.57233673 140.89277634 -46.57436096 139.86758392 -46.57644653 138.81132507 C-46.55535096 132.28494126 -46.52043953 125.67066435 -44.91604614 119.30656433 C-44.22775328 116.52839558 -44.19628396 113.79474317 -44.0625 110.9375 C-42.11259235 78.36801154 -35.65586946 41.96614616 -19.4375 13.375 C-19.10532471 12.75367188 -18.77314941 12.13234375 -18.4309082 11.4921875 C-15.3890392 5.8948564 -12.02997151 2.54255324 -5.9375 0.5625 C-3.95503945 0.41381546 -1.97630337 0.21559673 0 0 Z M-4.75 18.5 C-9.84105593 23.94624588 -12.73567932 29.88915748 -15.5625 36.6875 C-15.90925781 37.49123047 -16.25601563 38.29496094 -16.61328125 39.12304688 C-18.55997888 43.758574 -19.99026246 48.23914091 -20.98095703 53.16625977 C-21.59053159 56.11536192 -22.39171715 58.9989067 -23.18798828 61.90209961 C-29.95766367 86.67572406 -32.81439834 111.59351193 -34.54705811 137.17663574 C-34.68281805 139.18087968 -34.82493828 141.18468967 -34.96728516 143.18847656 C-35.49605577 151.71668177 -35.26085885 159.87406595 -34.4375 168.375 C-32.55735438 169.01981619 -32.55735438 169.01981619 -30.4375 169.375 C-23.726976 165.13677432 -19.25191626 158.25098643 -15.015625 151.70703125 C-12.86732138 148.53243407 -10.47878593 145.57712145 -8.05078125 142.61328125 C-6.16312679 139.99433209 -4.85034057 137.2765626 -3.4375 134.375 C-2.19994211 132.20120265 -0.94913207 130.03491411 0.3125 127.875 C15.52174413 101.4693283 24.38456094 75.75724025 16.5625 45.375 C13.663771 35.48272467 10.06560926 23.93503531 1.25 17.8125 C-2.0293302 15.79286992 -2.0293302 15.79286992 -4.75 18.5 Z " fill="#000000" transform="translate(86.4375,194.625)"/>
<path d="M0 0 C0.96808594 0.25652344 1.93617188 0.51304687 2.93359375 0.77734375 C4.38958984 1.13505859 4.38958984 1.13505859 5.875 1.5 C8.37109375 2.71484375 8.37109375 2.71484375 9.7578125 5.1796875 C10.54706136 8.44225125 9.8546834 9.74766446 8.37109375 12.71484375 C8.10296875 13.47796875 7.83484375 14.24109375 7.55859375 15.02734375 C4.92388026 20.9901164 0.97589683 26.30763912 -2.62890625 31.71484375 C-3.29986328 32.88080078 -3.29986328 32.88080078 -3.984375 34.0703125 C-5.73258162 36.88156163 -7.68288307 39.30982511 -9.81640625 41.83984375 C-12.96023718 45.62673101 -15.95047321 49.46356032 -18.81640625 53.46484375 C-21.40942626 57.07873778 -24.06434711 60.52249679 -27.015625 63.84765625 C-28.26278215 65.29109722 -29.46544225 66.7730537 -30.6484375 68.26953125 C-35.79089987 74.77190924 -41.24434248 80.42194114 -47.62890625 85.71484375 C-48.30308594 86.29234375 -48.97726563 86.86984375 -49.671875 87.46484375 C-51.62890625 88.71484375 -51.62890625 88.71484375 -55.62890625 88.71484375 C-56.54371888 81.57930527 -52.7727659 76.56766293 -48.65625 71.08984375 C-46.01469144 67.7718487 -43.30752596 64.51404995 -40.5625 61.28125 C-38.53325746 58.58789172 -37.17140567 55.95757556 -35.75390625 52.90234375 C-33.60430339 48.48490987 -31.3126395 44.73701102 -28.265625 40.90625 C-25.38931369 37.05515061 -22.984864 32.90699977 -20.5 28.796875 C-19.08363847 26.4638703 -17.62917408 24.18052823 -16.12890625 21.90234375 C-13.15936376 17.22581936 -10.84127451 12.17727636 -8.48242188 7.17260742 C-4.77102787 -0.5175112 -4.77102787 -0.5175112 0 0 Z " fill="#000000" transform="translate(287.62890625,200.28515625)"/>
<path d="M0 0 C0.68707031 0.16628906 1.37414062 0.33257812 2.08203125 0.50390625 C6.44264424 1.24526883 10.72794427 0.96466749 15.13671875 0.83984375 C18 1 18 1 20 3 C19.51863145 8.65372084 16.25427122 12.55858392 13 17 C12.401875 17.825 11.80375 18.65 11.1875 19.5 C7.76414675 21.84744223 4.0700155 21.82606771 0 22 C-1.00689846 19.80046453 -1.99514738 17.59639737 -2.953125 15.375 C-3.77522666 13.50993355 -4.68466352 11.68333938 -5.625 9.875 C-6 7 -6 7 -4.78125 5.078125 C-3.26219723 3.28678919 -1.69804112 1.6212935 0 0 Z " fill="#000000" transform="translate(828,149)"/>
<path d="M0 0 C1.98 0 3.96 0 6 0 C6 0.33 6 0.66 6 1 C4.02 1 2.04 1 0 1 C0 0.67 0 0.34 0 0 Z " fill="#000000" transform="translate(818,448)"/>
<path d="" fill="#000000" transform="translate(0,0)"/>
</svg>
